<?xml version="1.0" encoding="UTF-8" standalone="no"?>
<!DOCTYPE svg PUBLIC "-//W3C//DTD SVG 1.1//EN"
 "http://www.w3.org/Graphics/SVG/1.1/DTD/svg11.dtd">
<!-- Generated by graphviz version 13.1.2 (20250808.2320)
 -->
<!-- Title: G Pages: 1 -->
<svg width="389pt" height="85pt"
 viewBox="0.00 0.00 389.00 85.00" xmlns="http://www.w3.org/2000/svg" xmlns:xlink="http://www.w3.org/1999/xlink">
<g id="graph0" class="graph" transform="scale(1 1) rotate(0) translate(21.6 63.35)">
<title>G</title>
<polygon fill="#111111" stroke="none" points="-21.6,21.6 -21.6,-63.35 367.6,-63.35 367.6,21.6 -21.6,21.6"/>
<!-- unused&#45;components&#45;backup/lib.backup/utils/features.ts -->
<g id="node1" class="node">
<title>unused&#45;components&#45;backup/lib.backup/utils/features.ts</title>
<path fill="none" stroke="#ff6c60" d="M338.08,-23.75C338.08,-23.75 7.92,-23.75 7.92,-23.75 3.96,-23.75 0,-19.79 0,-15.83 0,-15.83 0,-7.92 0,-7.92 0,-3.96 3.96,0 7.92,0 7.92,0 338.08,0 338.08,0 342.04,0 346,-3.96 346,-7.92 346,-7.92 346,-15.83 346,-15.83 346,-19.79 342.04,-23.75 338.08,-23.75"/>
<text xml:space="preserve" text-anchor="middle" x="173" y="-6.45" font-family="Arial" font-size="14.00" fill="#ff6c60">unused&#45;components&#45;backup/lib.backup/utils/features.ts</text>
</g>
<!-- unused&#45;components&#45;backup/lib.backup/utils/features.ts&#45;&gt;unused&#45;components&#45;backup/lib.backup/utils/features.ts -->
<g id="edge1" class="edge">
<title>unused&#45;components&#45;backup/lib.backup/utils/features.ts&#45;&gt;unused&#45;components&#45;backup/lib.backup/utils/features.ts</title>
<path fill="none" stroke="#757575" d="M115.11,-24.15C96.26,-32.97 115.56,-41.75 173,-41.75 203.96,-41.75 223.84,-39.2 232.64,-35.46"/>
<polygon fill="#757575" stroke="#757575" points="236.11,-34.99 231.12,-25.65 229.19,-36.06 236.11,-34.99"/>
</g>
</g>
</svg>
