<svg xmlns="http://www.w3.org/2000/svg" width="1280" height="720" viewBox="0 0 1280 720">
  <defs>
    <linearGradient id="g2" x1="0" x2="1" y1="0" y2="1">
      <stop offset="0%" stop-color="#DBEAFE"/>
      <stop offset="100%" stop-color="#E0E7FF"/>
    </linearGradient>
  </defs>
  <rect width="1280" height="720" fill="url(#g2)"/>
  <g opacity="0.7">
    <rect x="140" y="160" width="1000" height="400" rx="16" fill="#FFFFFF" stroke="#E5E7EB"/>
    <polyline points="180,480 260,420 340,460 420,390 500,410 580,360 660,380 740,340 820,360 900,320 980,340 1080,300" fill="none" stroke="#3B82F6" stroke-width="4"/>
    <polyline points="180,520 260,500 340,540 420,520 500,530 580,520 660,540 740,520 820,530 900,520 980,525 1080,520" fill="none" stroke="#F97316" stroke-width="4"/>
  </g>
  <text x="160" y="140" font-family="ui-sans-serif, system-ui" font-size="18" fill="#64748B">Temperature Monitoring (placeholder visual)</text>
</svg>
